<svg xmlns="http://www.w3.org/2000/svg" fill="none" viewBox="0 0 168 56">
  <path fill="#E5E5E5" d="M0 0h168v56H0z"/>
  <path fill="#CDEBE9" d="M56 0H0v56h56V0z" opacity=".9"/>
  <path fill="#FCD0B7" d="M112 0H56v56h56V0z" opacity=".9"/>
  <path fill="#FDE7B6" d="M168 0h-56v56h56V0z" opacity=".9"/>
  <path fill="#57565E" d="M22.4 32c-.2 0-.3 0-.4-.2a.7.7 0 01-.2-.4V14.9c0-.2 0-.4.2-.5l.4-.2h7.8c2 0 3.7.5 4.7 1.3 1 .9 1.6 2.1 1.6 3.7 0 .9-.2 1.6-.7 2.2-.4.6-.9 1-1.4 1.3.7.3 1.3.8 1.7 1.5.5.7.7 1.5.7 2.4a5 5 0 01-1.6 4 7.2 7.2 0 01-4.8 1.4h-8zm7.3-10.7c.6 0 1.1-.2 1.5-.5.4-.4.5-.8.5-1.4 0-.6-.1-1-.5-1.4-.4-.3-.9-.5-1.5-.5h-3.3v3.8h3.3zm.2 7.4c.7 0 1.2-.2 1.6-.6.4-.4.6-1 .6-1.5a2 2 0 00-.6-1.5c-.4-.4-1-.6-1.6-.6h-3.5v4.2h3.5zM22.2 39H22V35.7v-.1h1.4c.4 0 .6 0 .8.2.2.2.3.4.3.7a.8.8 0 01-.4.7.9.9 0 01.5.8c0 .2 0 .4-.2.5 0 .2-.2.3-.3.4l-.6.1h-1.4zm1.3-2l.4-.1.2-.4c0-.2 0-.3-.2-.4l-.4-.2h-1V37h1zm0 1.6c.2 0 .4 0 .5-.2l.2-.4c0-.2 0-.3-.2-.4a.7.7 0 00-.5-.2h-1v1.2h1zm2 .4h-.2v-3.4l.1-.1h.3V39h-.3zm2 0c-.3 0-.6 0-.8-.3-.2-.2-.3-.4-.3-.8v-.4c0-.3.1-.6.3-.8.2-.2.5-.3.9-.3.3 0 .6 0 .8.3.2.2.3.5.3.8a2.9 2.9 0 010 .4c0 .4-.1.6-.3.8-.2.2-.5.3-.8.3zm0-.3c.3 0 .4-.1.5-.2.2-.2.2-.3.2-.6a2.3 2.3 0 000-.4c0-.2 0-.4-.2-.5a.6.6 0 00-.4-.2c-.3 0-.4 0-.5.2-.2 0-.2.3-.2.5v.4c0 .3 0 .4.2.6 0 .1.2.2.5.2zm2.9.3c-.4 0-.7 0-.9-.2-.2-.2-.3-.5-.3-.9v-.4c0-.3.1-.6.3-.8.2-.2.5-.3.9-.3l.6.1.3.3.2.4-.1.1H31 31l-.2-.4a.7.7 0 00-.4-.1c-.2 0-.4 0-.5.2l-.2.5v.4c0 .3 0 .4.2.6l.5.2.4-.1.2-.4h.4v.4l-.4.3-.6.1zm1.8 0H32v-3.4-.1h.3l.1.1v1.7l1-.8h.5v.1l-1.1 1 1.2 1.2v.1a.1.1 0 010 .1h-.5l-1-1.1v1h-.1v.1h-.3zM77.8 32c-.2 0-.3 0-.4-.2a.7.7 0 01-.2-.4V14.9c0-.2 0-.4.2-.5l.4-.2h11.9c.2 0 .3 0 .4.2.2.1.2.3.2.5v2.3c0 .2 0 .4-.2.5l-.4.2h-8.1v3.4H89c.2 0 .4 0 .5.2l.2.5v2.2l-.2.4c-.1.2-.3.2-.5.2h-7.5v3.5h8.3l.4.2c.2.1.2.3.2.5v2.4c0 .1 0 .3-.2.4l-.4.2h-12zM74.2 39H74V35.7v-.1h2.2V36h-1.8V37h1.6l.1.2v.2h-1.7v1.2h1.8v.4h-2.1zm3 0H77v-3.4l.1-.1H77.4V39H77zm2 0a1 1 0 01-.8-.3c-.2-.2-.3-.5-.3-.8v-.4c0-.3.1-.6.3-.8.2-.2.5-.3.8-.3.4 0 .7.1.9.3.2.3.3.6.3 1v.1H78.4v.1l.2.6.5.2a.7.7 0 00.6-.3h.5l-.1.3-.4.2-.6.1zm.7-1.5c0-.2 0-.4-.2-.5a.6.6 0 00-.5-.3c-.2 0-.4.1-.5.3l-.2.5H80zm1.2 1.5H81v-2.5h.4v.2c.2-.2.4-.3.7-.3.4 0 .6.1.8.4l.3-.3.5-.1c.3 0 .5 0 .7.3.2.1.2.4.2.8V39h-.3l-.1-.1v-1.4c0-.3 0-.4-.2-.5a.5.5 0 00-.4-.2c-.2 0-.3 0-.4.2l-.2.5V39h-.3l-.1-.1v-1.4c0-.3 0-.4-.2-.5a.6.6 0 00-.4-.2c-.2 0-.3 0-.4.2-.1 0-.2.2-.2.5V39H81zm5.3 0a1 1 0 01-.8-.3l-.4-.8v-.4c0-.3.2-.6.4-.8.2-.2.4-.3.8-.3.3 0 .6.1.8.3.2.3.3.6.3 1v.1h-1.8v.1c0 .2 0 .4.2.6l.5.2a.7.7 0 00.6-.3h.4v.3l-.5.2-.5.1zm.7-1.5l-.2-.5a.6.6 0 00-.5-.3c-.2 0-.4.1-.5.3l-.2.5h1.4zm1.1 1.5v-2.5h.3v.3l.4-.3.5-.1c.3 0 .6 0 .7.3.2.2.3.5.3.8v1.4l-.1.1H90v-1.5l-.2-.5c-.2-.2-.3-.2-.5-.2s-.4 0-.5.2c-.2.1-.2.3-.2.5V39l-.1.1h-.3zm3.9 0c-.5 0-.8-.3-.8-.9v-1.3h-.4-.1v-.3h.5v-.9l.1-.1H91.7v.9h.7v.4h-.6V38.5h.6l.1.1v.4H92zM129 32c-.1 0-.3 0-.4-.2a.7.7 0 01-.2-.4V14.9c0-.2 0-.4.2-.5l.4-.2h2.8c.4 0 .7.2.9.6l4.5 8 4.4-8c.2-.4.5-.6 1-.6h2.6c.2 0 .4 0 .5.2l.2.5v16.5c0 .2 0 .3-.2.4l-.5.2h-3c-.2 0-.3 0-.5-.2a.6.6 0 01-.2-.4v-9.6l-2.8 5.3c-.2.4-.5.6-.9.6h-1.3l-.5-.1-.4-.5-2.9-5.3v9.6l-.1.4-.5.2h-3zM129.2 39h-.1V35.7v-.1h.5l1 2 1-2h.5V39h-.3-.1v-2.5l-.9 1.6H130.5h-.1l-.9-1.6V39h-.3zm4.8 0c-.4 0-.7 0-.9-.3-.2-.2-.3-.4-.3-.8v-.4c0-.3.1-.6.3-.8.2-.2.5-.3.9-.3.3 0 .6 0 .8.3.2.2.3.5.3.8a2.5 2.5 0 010 .4c0 .4 0 .6-.3.8-.2.2-.5.3-.8.3zm0-.3l.5-.2.2-.6a2 2 0 000-.4l-.2-.5a.6.6 0 00-.5-.2c-.2 0-.4 0-.5.2l-.2.5v.4c0 .3 0 .4.2.6l.5.2zm2.7.3c-.3 0-.6 0-.8-.3-.2-.2-.2-.5-.3-.8V37.6c0-.4.1-.7.3-.9.2-.2.5-.3.8-.3.3 0 .6.1.8.3v-1-.2h.4V39h-.3V38.7a1 1 0 01-.9.3zm.1-.4c.2 0 .4 0 .5-.2l.2-.5a2 2 0 000-.4c0-.2 0-.4-.2-.5a.6.6 0 00-.5-.2c-.2 0-.4 0-.5.2a1 1 0 00-.2.6v.1c0 .6.2 1 .7 1zm2-2.6h-.1v-.4-.1h.5v.4h-.4zm0 3l-.1-.1v-2.4h.4V39h-.3zm1.5 0h-.1v-2.1h-.5v-.4h.4v-.3c0-.6.3-.9.9-.9h.8v.4h-.8c-.1 0-.2 0-.3.2v.5h1.1V39h-.3v-2.1h-.9v2l-.1.1h-.2zm3.3 0a1 1 0 01-.8-.3c-.2-.2-.3-.5-.3-.8v-.4c0-.3.1-.6.3-.8.2-.2.5-.3.8-.3.4 0 .7.1.9.3.2.3.3.6.3 1v.1H143v.1l.1.6.5.2a.7.7 0 00.6-.3h.5l-.1.3-.4.2-.6.1zm.7-1.5c0-.2 0-.4-.2-.5a.6.6 0 00-.5-.3c-.2 0-.3.1-.5.3l-.1.5h1.3zm1.2 1.5h-.1v-2.4-.1h.4v.3c.2-.3.4-.4.7-.4h.2l.1.1V36.8h-.4l-.4.2-.2.4V39h-.3z"/>
</svg>
