<svg width="203" height="240" viewBox="0 0 203 240" fill="none" xmlns="http://www.w3.org/2000/svg">
<g id="fox">
<path id="mouth" d="M18.4035 156.511C18.4035 156.511 43.9237 178.269 50.3038 187.255C55.0754 193.976 61.8235 205.312 64.9259 210.608C64.9612 225.285 80.877 240 100.508 240C119.544 240 135.088 226.164 136.046 211.943C138.181 208.264 145.939 195.006 151.442 187.255C157.822 178.269 183.342 156.511 183.342 156.511H18.4035Z" fill="#E5E5E5" fill-opacity="0.986395"/>
<path id="head__left" d="M61.6796 178.855C72.3733 192.902 87.994 202.896 101.695 202.896L100.029 48.3181C82.9113 48.1349 68.029 52.1019 68.029 52.1019C68.029 52.1019 8.01762 70.9496 10.55 87.5528C13.1465 104.576 13.5576 117.652 13.5576 117.652L0.524628 127.351C0.524628 127.351 13.4934 146.202 20.177 160.917C26.8606 175.633 50.9858 164.809 61.6796 178.855" fill="#FA7A24"/>
<path id="head__right" d="M141.214 178.855C151.908 164.809 176.033 175.633 182.717 160.917C189.401 146.202 202.369 127.351 202.369 127.351L189.336 117.653C189.336 117.653 189.748 105.995 192.344 87.5528C194.685 70.9215 134.865 52.1019 134.865 52.1019C134.865 52.1019 117.147 48.5014 100.029 48.3181L101.388 202.935C115.089 202.935 130.521 192.902 141.214 178.855" fill="#FF7F2A"/>
<path id="eyes" d="M71.3184 150.143C71.3184 150.143 70.3994 137.518 61.293 135.762C54.548 134.461 50.9334 142.618 50.9334 142.618C50.9334 142.618 50.7665 150.143 55.2778 151.648C66.5564 155.41 71.3184 150.143 71.3184 150.143V150.143ZM126.792 150.143C126.792 150.143 127.711 137.518 136.818 135.762C143.563 134.461 147.177 142.618 147.177 142.618C147.177 142.618 147.344 150.143 142.833 151.648C131.554 155.41 126.792 150.143 126.792 150.143Z" fill="black"/>
<path id="nose" d="M84.4038 210.627C87.7456 221.998 100.277 224.423 100.277 224.423C100.277 224.423 112.809 221.998 116.151 210.627C119.493 199.256 100.277 198.002 100.277 198.002C100.277 198.002 81.062 199.256 84.4038 210.627Z" fill="black"/>
<path id="ear__fill" d="M68.029 52.102C51.8923 32.4877 30.935 -8.09753 9.54749 3.27348C-11.84 14.6445 8.96966 95.9704 11.8868 117.653C13.9928 133.307 35.9631 77.5819 72.7075 72.8374C74.7116 72.5786 75.5508 68.9618 75.1886 65.1516C74.8265 61.3414 71.1808 55.933 68.029 52.102ZM134.971 52.102C151.108 32.4877 172.065 -8.09753 193.453 3.27348C214.84 14.6445 194.03 95.9704 191.113 117.653C189.007 133.307 167.037 77.5819 130.293 72.8374C128.288 72.5786 127.449 68.9618 127.811 65.1516C128.173 61.3414 131.819 55.933 134.971 52.102V52.102Z" fill="#F0F0F0"/>
<path id="ear__outline" d="M70.2012 52.6036C57.5743 31.0592 19.5056 -22.5917 3.31671 10.536C31.0439 -23.1884 62.1402 70.0554 72.2062 73.1717C74.2103 72.913 76.5533 69.6306 76.1912 65.8204C75.8291 62.0102 72.7099 56.884 70.2012 52.6036ZM132.799 52.6036C145.426 31.0592 183.494 -22.5917 199.683 10.536C171.956 -23.1884 140.86 70.0554 130.794 73.1717C128.79 72.913 126.447 69.6306 126.809 65.8204C127.171 62.0102 130.29 56.884 132.799 52.6036V52.6036Z" fill="#F86707"/>
</g>
</svg>
