<svg width="54" height="64" viewBox="0 0 54 64" fill="none" xmlns="http://www.w3.org/2000/svg">
<path d="M4.86926 41.4102C4.86926 41.4102 11.6215 47.167 13.3096 49.5446C14.572 51.3228 16.3575 54.3221 17.1783 55.7234C17.1877 59.6067 21.3987 63.5 26.5927 63.5C31.6294 63.5 35.742 59.8392 35.9955 56.0766C36.5604 55.1032 38.613 51.5954 40.069 49.5446C41.7571 47.167 48.5092 41.4102 48.5092 41.4102H4.86926Z" fill="#E5E5E5" fill-opacity="0.986395"/>
<path d="M16.3194 47.322C19.1488 51.0386 23.4117 53.6829 27.0368 53.6829L26.5723 12.7842C22.0433 12.7357 17.9994 13.7853 17.9994 13.7853C17.9994 13.7853 2.12135 18.7721 2.79137 23.165C3.47836 27.6691 3.58713 31.1288 3.58713 31.1288L0.138824 33.6949C0.138824 33.6949 3.57015 38.6826 5.33851 42.576C7.10688 46.4696 13.49 43.6057 16.3194 47.322" fill="#FA7A24"/>
<path d="M37.3629 47.322C40.1923 43.6057 46.5754 46.4695 48.3439 42.5759C50.1123 38.6826 53.5435 33.6949 53.5435 33.6949L50.0951 31.129C50.0951 31.129 50.2042 28.0445 50.891 23.165C51.5104 18.7646 35.683 13.7853 35.683 13.7853C35.683 13.7853 30.9951 12.8326 26.466 12.7841L26.8256 53.6932C30.4506 53.6932 34.5337 51.0386 37.3629 47.322" fill="#FF7F2A"/>
<path d="M18.8697 39.7254C18.8697 39.7254 18.6265 36.385 16.2171 35.9204C14.4325 35.5762 13.4761 37.7344 13.4761 37.7344C13.4761 37.7344 13.432 39.7253 14.6256 40.1235C17.6097 41.1189 18.8697 39.7254 18.8697 39.7254ZM33.5471 39.7254C33.5471 39.7254 33.7902 36.385 36.1998 35.9204C37.9844 35.5762 38.9406 37.7344 38.9406 37.7344C38.9406 37.7344 38.9848 39.7253 37.7912 40.1235C34.807 41.1189 33.5471 39.7254 33.5471 39.7254V39.7254Z" fill="black"/>
<path d="M22.3319 55.7284C23.216 58.737 26.5316 59.3786 26.5316 59.3786C26.5316 59.3786 29.8474 58.737 30.7316 55.7284C31.6159 52.7198 26.5316 52.388 26.5316 52.388C26.5316 52.388 21.4477 52.7198 22.3319 55.7284Z" fill="black"/>
<path d="M17.9993 13.7853C13.7298 8.59568 8.18488 -2.14249 2.5261 0.866088C-3.13267 3.87467 2.37322 25.3921 3.14504 31.129C3.70226 35.2708 9.51523 20.5269 19.2372 19.2715C19.7674 19.2031 19.9895 18.2461 19.8936 17.238C19.7978 16.2299 18.8332 14.7989 17.9993 13.7853ZM35.7111 13.7853C39.9807 8.59568 45.5255 -2.14249 51.1844 0.866088C56.8431 3.87467 51.3371 25.3921 50.5653 31.129C50.0081 35.2708 44.1952 20.5269 34.4734 19.2715C33.9429 19.2031 33.7209 18.2461 33.8167 17.238C33.9124 16.2299 34.8771 14.7989 35.7111 13.7853V13.7853Z" fill="#F0F0F0"/>
<path d="M18.5741 13.918C15.2332 8.21774 5.16084 -5.97739 0.877533 2.78765C8.21368 -6.13527 16.4412 18.5355 19.1045 19.36C19.6348 19.2916 20.2547 18.4231 20.1589 17.415C20.0631 16.4069 19.2378 15.0506 18.5741 13.918V13.918ZM35.1364 13.918C38.4773 8.21774 48.5494 -5.97739 52.8328 2.78765C45.4967 -6.13527 37.2692 18.5355 34.6059 19.36C34.0757 19.2916 33.4558 18.4231 33.5515 17.415C33.6473 16.4069 34.4725 15.0506 35.1364 13.918V13.918Z" fill="#F86707"/>
</svg>
