<svg xmlns="http://www.w3.org/2000/svg" fill="none" viewBox="0 0 205 109">
    <path fill="#282934" d="M205 18.2c0-10-8.1-18.2-18-18.2H18C8.2 0 0 8.2 0 18.2v72.6c0 10 8.1 18.2 18 18.2h169c9.9 0 18-8.2 18-18.2V18.2zm-15-8.6v89.8c-1 .3-2 .5-3 .5H24V9.1H187c1 0 2 .2 3 .5z"/>
    <path fill="#fff" d="M6 54.5a6 6 0 1012.1 0 6 6 0 00-12 0z"/>
    <path fill="#FA6727" d="M66.4 48c-.5 0-1-.1-1.4-.3l-.8-1c-.1-.3-.3-.7-.3-1.2v-8.3l-.1-.9-.2-.8-.5-.5c-.2-.2-.5-.2-.8-.2-.5 0-.8.1-1.1.4-.3.3-.5.8-.7 1.3l-.4 1.9V44l-.1 1.4c0 .5-.2.9-.4 1.3l-.8.9c-.3.2-.8.3-1.4.3-.6 0-1-.1-1.4-.3l-.8-1c-.2-.3-.3-.7-.3-1.2l-.1-1.4v-9.5-1.4c0-.5.2-.9.4-1.3.1-.3.4-.6.7-.8.4-.3.9-.4 1.5-.4.7 0 1.1.1 1.5.3l.8.8c.2.3.3.6.3 1v.8l.5-1a4.1 4.1 0 012-1.6 4 4 0 011.6-.3c.8 0 1.5.2 2.2.6.7.3 1.3 1 1.8 1.8.2-.4.5-.8.8-1 .3-.4.7-.6 1.1-.8l1.4-.4 1.4-.2a6 6 0 012 .3c.6.2 1.1.6 1.6 1 .6.5 1 1.2 1.3 2 .3.7.5 1.7.5 2.8v7.3l-.1 1.4c0 .5-.2.9-.4 1.3l-.8.9c-.3.2-.8.3-1.4.3-.6 0-1-.1-1.4-.3-.4-.3-.6-.6-.8-1l-.4-1.2v-8.3l-.1-.9-.2-.8-.5-.5c-.2-.2-.5-.2-.8-.2-.4 0-.7 0-1 .3l-.6 1-.4 1.4-.2 1.8V45.5l-.4 1.3-.8.9c-.4.2-.9.3-1.5.3zm17.3-10.8c0-1 .1-2 .4-2.7a5.3 5.3 0 012.6-3 8.6 8.6 0 014.3-1 15.4 15.4 0 012.6.4l1.6.6a5.9 5.9 0 012.5 3c.3.8.4 1.7.4 2.7v4.3c0 1-.1 2-.4 2.7-.3.7-.7 1.4-1.1 1.8-.4.5-1 1-1.4 1.2a7.6 7.6 0 01-3.1.9 15.4 15.4 0 01-2.2 0 8.8 8.8 0 01-3.2-.9 5.3 5.3 0 01-2.6-3c-.3-.7-.4-1.6-.4-2.7v-4.3zm5.3 5.5a1.8 1.8 0 00.8 1.5c.3.2.7.3 1.2.3s.9-.1 1.1-.3l.6-.6.2-.9v-6.2c0-.4 0-.7-.2-1a2 2 0 00-.6-.6c-.2-.2-.6-.3-1.1-.3a2 2 0 00-1.2.3 2 2 0 00-.6.6l-.2 1v6.2zm14.6-15l.1-1.4c0-.5.2-1 .3-1.3l.8-.9c.4-.2.9-.3 1.4-.3.6 0 1.1.1 1.5.3l.8 1c.1.3.3.7.3 1.2v7.4l.5-1 .8-1a3.6 3.6 0 012.5-1 6 6 0 012 .4c.6.2 1.1.5 1.6 1a5 5 0 011.3 1.9c.3.8.4 1.7.4 2.9v5c0 1.1-.1 2-.4 2.9-.3.7-.8 1.4-1.3 1.9-.5.4-1 .8-1.7 1a6 6 0 01-1.9.3c-.5 0-1 0-1.5-.3a3.9 3.9 0 01-2.2-2.6v.8l-.4 1c-.2.3-.4.6-.8.8a3 3 0 01-1.5.3c-.6 0-1-.1-1.4-.3-.4-.3-.6-.6-.8-1-.2-.3-.3-.7-.3-1.2V27.7zm9 9.5v-.8l-.2-.8c-.1-.3-.3-.4-.5-.6l-.8-.2c-.4 0-.8.1-1.1.4a3 3 0 00-.7 1l-.3 1.4-.1 1.2v2.3l.4 1.6c.2.4.4.8.7 1 .3.2.7.3 1.1.3.4 0 .6-.1.8-.3l.5-.5.2-.9V37.2zm11.8-2.6v-1.4c0-.5.2-.9.4-1.3.2-.3.4-.6.8-.8.3-.3.8-.4 1.4-.4.6 0 1 .1 1.4.4l.8.8c.2.4.3.8.3 1.3l.1 1.4v11l-.4 1.2c-.2.4-.5.7-.8.9-.4.2-.8.3-1.4.3-.6 0-1-.1-1.4-.3-.4-.2-.6-.5-.8-.9l-.4-1.2v-11zm5.2-8.2c0 1-.2 1.6-.6 2-.5.4-1.2.7-2 .7s-1.5-.3-2-.7c-.4-.4-.6-1-.6-2 0-.9.2-1.6.7-2 .4-.4 1-.6 2-.6.8 0 1.5.2 1.9.6.4.4.6 1.1.6 2zm7.5 1.2v-1.4c0-.4.2-.8.4-1.2.2-.4.4-.7.8-.9.3-.2.8-.3 1.4-.3.6 0 1 .1 1.4.3.4.2.6.5.8.9l.3 1.2.1 1.4v18l-.4 1.2a2 2 0 01-.8.9c-.3.2-.8.3-1.4.3-.6 0-1-.1-1.4-.3-.4-.2-.6-.5-.8-.9l-.4-1.2v-18zm26 10.5v.7l-.3.7-.8.6-1.4.2h-6.9V42l.1.8.4.9.7.6c.2.2.6.2 1 .2l1-.1.6-.4.4-.5.5-.6.8-.4 1.4-.1h.8c.3 0 .5.2.7.3l.5.5c.2.2.2.5.2.9 0 .7-.2 1.4-.7 1.9-.4.5-1 .9-1.8 1.2a15.5 15.5 0 01-4.7.8c-.9 0-1.8-.1-2.7-.4-.8-.2-1.6-.6-2.3-1a5.4 5.4 0 01-1.5-2 7 7 0 01-.6-3v-4.1c0-1.1.1-2 .4-2.8.2-.8.6-1.4 1-1.9s.9-.9 1.4-1.2c.5-.3 1-.5 1.6-.6l1.5-.3a17.9 17.9 0 014.2.3c.8.2 1.5.5 2 .8a4.5 4.5 0 012 2.5c.3.5.4 1 .4 1.4v2.4zm-9.4-.4h4.4v-1.4c-.1-.4-.2-.8-.4-1 0-.4-.3-.6-.6-.7a3 3 0 00-1.3-.3c-.5 0-.9.1-1.1.3-.3.1-.5.3-.6.5l-.3.7v1.9z"/>
    <path fill="#292929" d="M84.1 62.7h1l.7.3.6.7.2 1.2c0 .4 0 .8-.2 1l-.6.7-.8.3h-1.9v9.2l-.1 1.5c0 .4-.2.8-.4 1.2-.1.4-.4.7-.8.9-.3.2-.8.3-1.4.3-.6 0-1-.1-1.4-.3-.4-.2-.6-.5-.8-.9l-.3-1.2-.1-1.5v-9.2h-1.9c-.3 0-.5-.2-.8-.3l-.5-.6c-.2-.3-.2-.7-.2-1.1 0-.5 0-1 .2-1.2l.5-.7.8-.2h1.9l.1-2.9c.1-.8.4-1.6.7-2.2.4-.6.9-1 1.6-1.4.7-.3 1.7-.5 2.9-.5l1.5.1 1.2.5a2.2 2.2 0 011 1.9 2.2 2.2 0 01-.6 1.7l-.7.4h-.7a1 1 0 01-.5 0 1 1 0 00-.5-.2c-.2 0-.3 0-.4.2l-.2.4v.6l-.1.6v.7h1zm5.9 3.9v-1.4l.4-1.3.8-.8c.4-.3.8-.4 1.4-.4.6 0 1 .1 1.4.4.4.2.6.5.8.8l.4 1.3v12.4c0 .4-.2.8-.4 1.2-.2.4-.4.7-.8.9-.3.2-.8.3-1.4.3-.6 0-1-.1-1.4-.3-.3-.2-.6-.5-.8-.9l-.3-1.2L90 76v-9.5zm5.3-8.2c0 1-.2 1.6-.7 2-.5.4-1.1.7-2 .7-.8 0-1.4-.3-1.9-.7-.4-.4-.7-1-.7-2 0-.9.3-1.6.7-2 .5-.4 1.1-.6 2-.6.9 0 1.5.2 2 .6.4.4.6 1.1.6 2zm16.2 7c0 .8-.3 1.5-.7 1.9-.4.4-1 .6-1.9.6a5.2 5.2 0 00-1.2.2l-.7.3-.7.6c-.2.2-.4.5-.5 1l-.2 1.3v6.3l-.4 1.2c-.2.4-.5.7-.8.9-.3.2-.8.3-1.4.3-.6 0-1-.1-1.4-.3-.3-.2-.6-.5-.7-.9l-.4-1.2v-11-1.4c0-.5.2-1 .4-1.3.1-.3.4-.6.7-.8.4-.2.8-.4 1.4-.4.6 0 1 .2 1.4.4l.7 1 .2 1.4V67h.3a8.2 8.2 0 011.6-3.1c.3-.4.6-.7 1-.9l1-.3 1.2.2c.3.1.5.2.7.5l.3.7v1.2zm7 1.8c0 .3.1.5.3.7l.6.6a10.4 10.4 0 002 1 42.4 42.4 0 013.3 2l1.1 1.5c.3.5.5 1.2.5 2a5 5 0 01-1.1 3.2l-1.2 1-1.4.5-1.5.3a10.6 10.6 0 01-5.4-.7 5 5 0 01-1.2-.8 4.3 4.3 0 01-1.2-3c0-.7.2-1.2.6-1.5.4-.3 1-.5 1.8-.5.6 0 1 .2 1.4.5.4.3.6.8.6 1.5 0 .2 0 .4.2.5l.5.4.6.1h.7c.4 0 .8 0 1-.3.3-.2.5-.5.5-.9l-.3-.9c-.2-.3-.4-.6-.8-.8l-1-.7a58.8 58.8 0 00-2.8-1.6l-1.4-1a5 5 0 01-1-1.3c-.3-.5-.5-1-.5-1.6 0-1 .2-1.7.5-2.3.3-.6.7-1 1.3-1.4.5-.4 1.2-.7 2-.8.8-.2 1.8-.3 2.8-.3h.3c1 0 1.7 0 2.4.2.6.2 1.2.4 1.6.7a3.3 3.3 0 011.6 1.8l.2 1v.7c0 .3 0 .6-.2.9-.1.2-.3.4-.6.5l-.8.3a8 8 0 01-.9 0 2 2 0 01-1.3-.4l-.4-.5-.1-.5c0-.4-.2-.8-.6-1a2 2 0 00-1.2-.3h-.5l-.5.2-.4.4v.6zm13.5-4.5v-3l.1-1.4c0-.5.2-1 .4-1.3l.8-.9c.3-.2.8-.3 1.4-.3.5 0 1 .1 1.4.3.3.3.6.6.7 1l.4 1.2v4.4h2.4c.3 0 .5.2.8.3l.5.6c.2.3.3.7.3 1.2s-.1.8-.3 1.1c0 .3-.3.5-.5.6-.3.2-.5.3-.8.3h-2.3V73.8c0 .2 0 .4.2.7 0 .2.2.4.4.5.2.2.5.2 1 .2l1 .1c.3 0 .5.2.7.4.2.1.3.3.4.6l.2 1.1c0 .5-.1.9-.4 1.2-.2.4-.4.6-.8.9a4 4 0 01-1.3.4 7.5 7.5 0 01-3.6-.1c-.5-.1-1-.4-1.4-.7l-1-1.1-.4-1.5a56.8 56.8 0 01-.2-3.8v-5.7h-2l-.7-.4-.6-.6-.2-1.1c0-.5 0-.9.2-1.2a1.6 1.6 0 011.4-.8h1.9z"/>
</svg>
