<svg xmlns="http://www.w3.org/2000/svg" viewBox="0 0 128.4 79.2">
  <g fill="#282934" transform="translate(14.4)">
    <rect width="52" height="4" x="31" y="68" rx="1"/>
    <path d="M52 61.8h10v8.4H52z"/>
    <path style="font-feature-settings:normal;font-variant-alternates:normal;font-variant-caps:normal;font-variant-east-asian:normal;font-variant-ligatures:normal;font-variant-numeric:normal;font-variant-position:normal;font-variation-settings:normal;inline-size:0;isolation:auto;mix-blend-mode:normal;shape-margin:0;shape-padding:0;text-decoration-color:#000;text-decoration-line:none;text-decoration-style:solid;text-indent:0;text-orientation:mixed;text-transform:none;white-space:normal" d="M0 1.3v19.1c0 .8.6 1.4 1.3 1.4h1.4c.7 0 1.3-.6 1.3-1.4v-15C4 4.5 4.6 4 5.3 4h103.4c.7 0 1.3.6 1.3 1.3v49.4c0 .7-.6 1.3-1.3 1.3H21.6c-.8 0-1.4.6-1.4 1.3v5.4c0 .7.6 1.3 1.4 1.3h91.1c.7 0 1.3-.5 1.3-1.3V1.3c0-.8-.6-1.4-1.3-1.4H1.3C.5 0 0 .6 0 1.4z" color="#000"/>
  </g>
  <circle cx="71.4" cy="60.1" r="2" fill="#fff"/>
  <path fill="#0d0e11" d="M41.7 20.5c1.5 0 2.7.3 3.7.8s1.8 1.1 2.4 2c.5.9.8 1.9.8 3 0 1.4-.4 2.5-1.3 3.4-.8 1-2 1.5-3.5 1.9.6.2 1.2.6 1.6 1.2l1 1.4a26.5 26.5 0 011.5 3.3c.5.8 1 1.2 1.6 1.2h.5c.3 0 .6.1.8.3.2.2.2.5.2.9s0 .7-.2.9c-.2.2-.5.3-.8.3h-1.3c-.7 0-1.3-.2-1.7-.6-.5-.3-1-1-1.4-1.8a50.9 50.9 0 01-1.8-3.8l-.8-1.3a3.4 3.4 0 00-3-1.4h-2.3v6.5h2.2c.4 0 .7.1.9.3l.2.9c0 .4 0 .7-.2.9-.2.2-.5.3-.9.3h-7c-.3 0-.6-.1-.8-.3l-.2-1c0-.4 0-.6.2-.8.2-.2.5-.3.9-.3h2V23h-2c-.4 0-.7 0-.9-.3l-.2-.9c0-.4 0-.7.2-.9.2-.2.5-.3.9-.3zm-4 9.3h3.5c3.1 0 4.7-1.1 4.7-3.4a3 3 0 00-1.2-2.6c-.8-.6-1.9-1-3.3-1h-3.7zM81 20.5c.4 0 .6.1.8.3.2.2.3.5.3 1s-.1.6-.3.8c-.2.2-.4.3-.8.3h-1l-2.3 17.4c-.1.4-.3.7-.5.9-.2.2-.6.2-1 .2-1 0-1.6-.3-1.8-1l-3.2-10.1-3.2 10c-.3.8-.9 1.1-1.8 1.1-.5 0-.8 0-1-.2-.3-.2-.4-.5-.5-.9L62.5 23h-.8c-.4 0-.7 0-.9-.3l-.2-.9c0-.4 0-.7.2-.9.2-.2.5-.3.9-.3h6c.3 0 .6.1.8.3l.2 1c0 .4 0 .6-.2.8-.2.2-.5.3-.9.3h-2.5l1.7 13.8 3.3-10.1c.1-.6.6-.8 1.2-.8l.9.1c.2.1.3.3.4.6l3.2 10.2L77.6 23h-2.1c-.4 0-.7 0-.9-.3l-.2-.9c0-.4 0-.7.2-.9.2-.2.5-.3.9-.3zm20.5 0a9 9 0 014.8 1.3c1.4.8 2.4 2 3.2 3.5.7 1.6 1.1 3.4 1.1 5.5s-.4 4-1.1 5.5a8.3 8.3 0 01-8 4.8h-8.1c-.4 0-.7-.1-.9-.3l-.2-1c0-.4 0-.6.2-.8.2-.2.5-.3.9-.3h2V23h-2c-.4 0-.7 0-.9-.3l-.2-.9c0-.4 0-.7.2-.9.2-.2.5-.3.9-.3zM98 38.7h3.2a6 6 0 006-3.6c.5-1.2.8-2.6.8-4.3s-.3-3.1-.8-4.3a6 6 0 00-2.4-2.7c-1-.6-2.2-1-3.6-1H98z"/>
  <g fill="none" transform="translate(0 28) scale(.75452)">
    <rect width="33" height="65" x="1.5" y="1.5" stroke="#282934" stroke-width="3" rx="4.5"/>
    <g fill="#282934">
      <path d="M2 60h32v5H2z"/>
      <path d="M2 60h32v5.5H2zM2 2h32v3H2z"/>
      <path d="M2 2h32v3H2z"/>
    </g>
    <circle cx="18" cy="64" r="2" fill="#fff"/>
  </g>
</svg>
