<svg width="59" height="19" viewBox="0 0 59 19" fill="none" xmlns="http://www.w3.org/2000/svg">
<g id="layer1">
<path id="tail" d="M44.0653 6.24685C45.5197 12.6266 40.2746 18.5311 36.4347 18.5755C32.5948 18.6198 29.9461 16.2509 31.2008 13.63C33.0127 17.1789 37.6555 13.68 34.7912 10.4787C31.9942 7.95 25.5241 10.2075 22.2567 9.81187C19.5275 9.61327 18.962 9.09239 17.1727 6.57669C15.3834 4.061 18.7884 1.77584 23.3746 0.531055C27.9608 -0.713728 42.6108 -0.132924 44.0653 6.24685V6.24685Z" fill="#FF7F2A"/>
<g id="text">
<path id="path1074" d="M6.42367 2.10365C6.47018 2.0158 6.51153 1.94345 6.54253 1.88661C6.63555 1.70057 6.64072 1.51454 6.54773 1.36984C6.45988 1.22515 6.28418 1.1373 6.07748 1.1373C5.72608 1.1373 5.35917 1.38018 5.08529 1.80909C5.07496 1.82459 5.06979 1.83493 5.06462 1.84526L5.04912 1.86593C4.75457 2.34652 4.49102 3.02865 4.29465 3.84513L4.28945 3.89164C4.13959 3.91748 3.4833 4.05701 2.74433 4.5686C2.765 4.46008 2.79084 4.37223 2.79084 4.36706C2.99237 3.55058 3.21459 2.92013 3.36961 2.51705C3.41095 2.40853 3.45229 2.30518 3.4833 2.21733C3.54014 2.07264 3.58665 1.95378 3.61766 1.86593C3.69517 1.63339 3.69517 1.44735 3.61766 1.33883C3.56082 1.25615 3.45229 1.21481 3.2921 1.21481C3.25076 1.21481 3.20425 1.22001 3.15257 1.22514C2.43427 1.31299 1.72114 1.65406 1.1372 2.18115C0.537751 2.72892 0.134679 3.43172 0.0158241 4.16552C-0.0203459 4.37223 0.00549116 4.53242 0.0933312 4.63578C0.186351 4.7443 0.315541 4.76497 0.408559 4.76497C0.610096 4.76497 0.821968 4.66162 0.956326 4.50659C1.04418 4.40323 1.14236 4.2327 1.11136 3.98466L1.10616 3.96399L1.11136 3.94849C1.23021 3.50924 1.56094 3.1165 2.03636 2.83745L2.20689 2.73926L2.16555 2.93046C1.99502 3.63842 1.87617 4.53242 1.82449 5.37475V5.40059L1.80899 5.42643C1.56094 5.73132 1.41108 6.03621 1.35424 6.33593C1.32323 6.49096 1.35944 6.5633 1.38525 6.59431C1.41109 6.63048 1.44209 6.63048 1.4576 6.63048C1.48344 6.63048 1.50411 6.62528 1.51961 6.60464C1.54028 6.5788 1.54545 6.54263 1.53511 6.49095V6.48575C1.52478 6.4134 1.56095 6.33072 1.65913 6.22737L1.79866 6.07751L1.80386 6.28421C1.80906 6.83198 1.8607 7.28673 1.94855 7.59679C2.01056 7.81383 2.11908 8.07221 2.29995 8.07221C2.31028 8.07221 2.32579 8.06701 2.34129 8.06701H2.34649C2.393 8.05151 2.424 8.036 2.43951 8.0205L2.44471 8.0153L2.44991 8.0101C2.46024 7.97909 2.45511 7.91191 2.43957 7.77239C2.41373 7.53985 2.36722 7.14711 2.42407 6.46498C2.44474 6.24277 2.47575 6.00506 2.51192 5.75702C2.51712 5.72601 2.52226 5.69501 2.52742 5.664V5.6588V5.6536C2.52742 5.64327 2.52742 5.63293 2.52742 5.62259C2.89432 5.33837 3.75731 5.04898 4.07254 4.99214L4.05187 5.13683C4.0312 5.3177 4.00536 5.50373 3.98986 5.69493L3.98466 5.72594C3.87614 6.82665 3.90198 7.88601 4.04667 8.5578C4.15002 9.03323 4.31538 9.30194 4.49625 9.30194C4.51175 9.30194 4.53242 9.30194 4.54793 9.29674C4.63061 9.27607 4.68746 9.23473 4.7288 9.0797C4.77014 8.92468 4.78564 8.68179 4.80631 8.35107C4.83732 7.84981 4.88382 7.09017 5.05952 6.02563C5.12153 5.64323 5.20422 5.26083 5.29723 4.88876L5.3179 4.81641L5.39025 4.82675C5.61763 4.85776 5.78816 4.9456 5.89668 5.07996L5.90702 5.09029V5.10579C5.92769 5.1678 5.95353 5.19364 5.99487 5.19364C6.06722 5.19364 6.18091 5.12646 6.27392 5.02828C6.38761 4.91459 6.47546 4.76473 6.51163 4.62004C6.58914 4.35649 6.49613 4.13944 6.25325 3.99475C6.10856 3.9069 5.93286 3.83972 5.74166 3.80355L5.64348 3.78288L5.67965 3.68986C5.9587 2.95089 6.24808 2.41862 6.42378 2.1034L6.42367 2.10365Z" fill="#FF7F2A"/>
<path id="path1076" d="M7.55022 6.07756C7.51405 6.06722 7.47269 6.08277 7.42102 6.12408C7.36934 6.16542 7.328 6.22226 7.30217 6.28944C7.27116 6.35662 7.27116 6.42897 7.30217 6.50131C7.36935 6.615 7.53471 6.66668 7.8086 6.65117C8.08248 6.63567 8.35636 6.52198 8.63025 6.29977C8.87829 6.0724 8.99198 5.81402 8.97131 5.5298C8.95064 5.24558 8.77494 5.02854 8.44421 4.88901C7.9998 4.73398 7.58639 4.75982 7.20915 4.96136C6.83192 5.16807 6.53736 5.47296 6.33065 5.87087C6.12395 6.26877 6.04644 6.68735 6.10845 7.12143C6.17563 7.46249 6.31515 7.69504 6.52186 7.8294C6.72856 7.95859 6.93527 8.03093 7.14714 8.0516C7.56572 8.09294 7.94295 8.0568 8.28402 7.94825C8.61991 7.83973 8.88863 7.7002 9.085 7.54001C9.28654 7.37464 9.38472 7.23512 9.38989 7.12143C9.41056 7.06459 9.41056 7.01291 9.38469 6.97674C9.36402 6.94057 9.33301 6.9199 9.29684 6.91473C9.26067 6.90953 9.23483 6.92507 9.21933 6.96124C9.20383 6.99741 9.21413 7.05426 9.25034 7.1421C9.24514 7.23512 9.14182 7.33847 8.94028 7.44183C8.73875 7.54518 8.49587 7.62269 8.21682 7.67437C7.93776 7.72605 7.67421 7.72088 7.43133 7.66917C7.16779 7.59165 7.01793 7.44179 6.97658 7.22475C6.93524 7.00254 6.96626 6.76483 7.07478 6.51679C7.1833 6.26874 7.33316 6.05687 7.51919 5.8915C7.71039 5.72614 7.90676 5.65896 8.1083 5.68997C8.22715 5.72098 8.284 5.76748 8.27366 5.83983C8.26332 5.90701 8.21682 5.97936 8.12897 6.05687C8.04629 6.13438 7.95327 6.19123 7.85509 6.24291C7.7569 6.28942 7.67939 6.30491 7.62254 6.28941C7.58637 6.27391 7.5657 6.2584 7.56053 6.23257C7.56053 6.20673 7.56053 6.18606 7.57086 6.16022C7.57606 6.13955 7.5812 6.12405 7.5812 6.10854C7.5812 6.09304 7.57086 6.0827 7.55019 6.07753L7.55022 6.07756Z" fill="#FF7F2A"/>
<path id="path1078" d="M11.0952 7.16274C11.121 7.01288 11.0952 6.93537 11.0074 6.93537C10.9712 6.93537 10.9453 6.95087 10.935 6.97671C10.9247 7.00255 10.9247 7.03355 10.9298 7.06973C10.935 7.1059 10.9453 7.13691 10.9556 7.15758C10.9608 7.17825 10.9453 7.22476 10.904 7.2971C10.8678 7.36945 10.8058 7.45213 10.7334 7.53481C10.6559 7.61749 10.5681 7.68984 10.4699 7.74152C10.3665 7.79836 10.258 7.81903 10.1443 7.80353C10.0151 7.77252 9.92211 7.66917 9.87044 7.50381C9.82393 7.33327 9.80843 7.14724 9.8291 6.9457C9.89111 6.41344 10.0616 5.79332 10.3355 5.08019C10.6094 4.37223 10.9298 3.74694 11.2967 3.19917C11.4414 2.97697 11.4724 2.80643 11.3897 2.69274C11.3019 2.57906 11.1572 2.52221 10.9608 2.51188C10.7644 2.50668 10.5732 2.54805 10.382 2.64107C10.227 2.74442 10.0513 3.04415 9.85494 3.54024C9.66374 4.03633 9.49321 4.5841 9.34334 5.18354C9.19348 5.77782 9.1108 6.27391 9.09013 6.67182C9.07979 6.80618 9.09013 6.97671 9.11597 7.18341C9.14181 7.39012 9.22449 7.58132 9.35368 7.75185C9.48287 7.92238 9.69474 8.02057 9.9893 8.05157C10.3149 8.06191 10.5784 7.96373 10.7644 7.76736C10.9556 7.56582 11.0642 7.36428 11.0952 7.16274H11.0952Z" fill="#FF7F2A"/>
<path id="path1080" d="M12.8367 7.16274C12.8625 7.01288 12.8367 6.93537 12.7489 6.93537C12.7127 6.93537 12.6868 6.95087 12.6765 6.97671C12.6662 7.00255 12.6662 7.03355 12.6713 7.06973C12.6765 7.1059 12.6868 7.13691 12.6971 7.15758C12.7023 7.17825 12.6868 7.22476 12.6455 7.2971C12.6093 7.36945 12.5473 7.45213 12.4749 7.53481C12.3974 7.61749 12.3096 7.68984 12.2114 7.74152C12.108 7.79836 11.9995 7.81903 11.8858 7.80353C11.7566 7.77252 11.6636 7.66917 11.6119 7.50381C11.5654 7.33327 11.5499 7.14724 11.5706 6.9457C11.6326 6.41344 11.8031 5.79332 12.077 5.08019C12.3509 4.37223 12.6713 3.74694 13.0382 3.19917C13.1829 2.97697 13.2139 2.80643 13.1312 2.69274C13.0434 2.57906 12.8987 2.52221 12.7023 2.51188C12.5059 2.50668 12.3147 2.54805 12.1235 2.64107C11.9685 2.74442 11.7928 3.04415 11.5964 3.54024C11.4052 4.03633 11.2347 4.5841 11.0848 5.18354C10.935 5.77782 10.8523 6.27391 10.8316 6.67182C10.8213 6.80618 10.8316 6.97671 10.8575 7.18341C10.8833 7.39012 10.966 7.58132 11.0952 7.75185C11.2244 7.92238 11.4362 8.02057 11.7308 8.05157C12.0564 8.06191 12.3199 7.96373 12.5059 7.76736C12.6971 7.56582 12.8057 7.36428 12.8367 7.16274H12.8367Z" fill="#FF7F2A"/>
<path id="path1082" d="M14.8314 4.81147C14.4542 4.70295 14.0769 4.72362 13.71 4.87348C13.338 5.02334 13.0382 5.27655 12.8109 5.63829C12.5783 6.00002 12.4853 6.44444 12.5266 6.97154C12.5835 7.27643 12.6765 7.5038 12.8057 7.64333C12.9349 7.78802 13.0692 7.88104 13.2139 7.92238C13.3586 7.96372 13.4827 7.98439 13.5912 7.98439C14.0304 7.98439 14.3973 7.84486 14.697 7.57098C14.9916 7.29193 15.2035 6.95603 15.3275 6.56329C15.4515 6.17572 15.4774 5.80882 15.3998 5.47809C15.3275 5.14219 15.1363 4.91999 14.8314 4.81147V4.81147ZM13.7359 7.44179C13.555 7.42112 13.431 7.31777 13.369 7.13173C13.307 6.9457 13.307 6.73383 13.3638 6.50645C13.4206 6.27391 13.5395 6.08271 13.7203 5.93285C13.9012 5.78298 14.1389 5.73131 14.4386 5.78298C14.6195 5.83982 14.728 5.95352 14.759 6.11888C14.79 6.28424 14.7694 6.47545 14.697 6.68215C14.6247 6.89402 14.511 7.07489 14.3456 7.22475C14.1802 7.37978 13.9787 7.44696 13.7358 7.44179H13.7359Z" fill="#FF7F2A"/>
<path id="path1084" d="M15.4839 9.05287C15.5804 9.05607 15.6704 9.05045 15.754 9.03599C15.8376 9.02153 15.91 8.99821 15.9711 8.96605C16.0338 8.93551 16.0828 8.89612 16.1182 8.84789C16.1535 8.79965 16.1712 8.74258 16.1712 8.67667C16.1712 8.63004 16.164 8.59065 16.1495 8.5585C16.1367 8.52474 16.1198 8.495 16.0989 8.46927C16.078 8.44194 16.0555 8.41621 16.0314 8.3921C16.0089 8.36637 15.9871 8.33985 15.9662 8.31252C15.9453 8.28358 15.9277 8.25143 15.9132 8.21606C15.9003 8.17908 15.8939 8.13487 15.8939 8.08342C15.8939 8.03358 15.9027 7.98535 15.9204 7.93873C15.9381 7.8905 15.9638 7.84789 15.9976 7.81092C16.0314 7.77394 16.0724 7.74419 16.1206 7.72169C16.1704 7.69918 16.2267 7.68793 16.2894 7.68793C16.3682 7.68793 16.4389 7.70642 16.5016 7.7434C16.5643 7.77876 16.6174 7.8278 16.6608 7.8905C16.7042 7.9516 16.7372 8.02234 16.7597 8.10272C16.7822 8.1815 16.7934 8.26429 16.7934 8.35111C16.7934 8.50063 16.7661 8.6413 16.7114 8.77313C16.6568 8.90497 16.5748 9.01992 16.4654 9.11799C16.3561 9.21606 16.2195 9.29323 16.0555 9.3495C15.8931 9.40738 15.7026 9.43632 15.4839 9.43632L15.4839 9.05287Z" fill="#FF7F2A"/>
<path id="path1086" d="M23.6963 8.03092C23.7066 7.73637 23.5981 7.48315 23.3759 7.27128C23.1537 7.05941 22.8953 6.86304 22.5956 6.68217C22.3734 6.53748 22.1667 6.39278 21.9755 6.23776C21.7843 6.08273 21.6448 5.9122 21.5517 5.71583C21.4587 5.52462 21.4535 5.30242 21.5259 5.04403C21.7171 4.48076 22.022 4.01051 22.4457 3.6281C22.8643 3.25087 23.2674 3.05967 23.6446 3.05967C23.8152 3.07 23.9185 3.12685 23.9547 3.21986C23.996 3.31805 23.996 3.4369 23.9599 3.57643C23.9237 3.71079 23.8824 3.84515 23.8307 3.97434C23.8049 4.04152 23.7842 4.10353 23.7635 4.16037C23.7325 4.28956 23.8049 4.38775 23.9754 4.44976C24.1459 4.51177 24.3526 4.4911 24.6007 4.39292C24.8436 4.29474 25.0658 4.06736 25.257 3.71596C25.3655 3.50409 25.4482 3.26121 25.5102 2.98216C25.567 2.70827 25.5722 2.43955 25.5205 2.176C25.4688 1.91762 25.3396 1.69542 25.1226 1.52488C24.9107 1.34918 24.5852 1.25617 24.1511 1.251C23.7532 1.2458 23.3036 1.38019 22.8023 1.64374C22.3011 1.91246 21.8205 2.31036 21.3657 2.8478C20.911 3.38523 20.5596 4.01568 20.3167 4.73915C20.1978 5.1784 20.1927 5.52979 20.3012 5.80368C20.4097 6.0724 20.5699 6.30494 20.7921 6.50648C21.0143 6.70284 21.2417 6.86821 21.4794 7.00257C21.7223 7.13693 21.9187 7.23511 22.084 7.30746C22.1719 7.3488 22.2339 7.37981 22.2752 7.40048C22.6318 7.62269 22.8282 7.83973 22.8592 8.05677C22.8902 8.27897 22.8333 8.45984 22.6938 8.6097C22.5543 8.7544 22.4044 8.83191 22.2494 8.83708C22.0685 8.83188 21.9703 8.77507 21.9548 8.67172C21.9342 8.56836 21.9652 8.45984 22.0324 8.34098C22.0737 8.26347 22.0737 8.18596 22.0324 8.10844C21.991 8.03093 21.929 7.98959 21.8463 7.97925C21.7636 7.97405 21.6758 8.03093 21.5879 8.15495C21.4691 8.33582 21.4071 8.53219 21.4019 8.73889C21.3967 8.95077 21.5001 9.1213 21.7171 9.25566C21.9393 9.36935 22.2029 9.37968 22.4974 9.28667C22.7972 9.19882 23.0659 9.03862 23.2984 8.81125C23.5361 8.58387 23.6653 8.32549 23.6963 8.03093L23.6963 8.03092Z" fill="#FFF6D5"/>
<path id="path1088" d="M26.8589 4.69264C26.9209 4.69264 26.9881 4.6513 27.0708 4.57895C27.1535 4.50144 27.2103 4.40842 27.2516 4.2999C27.2878 4.19138 27.2671 4.08286 27.1948 3.97434C27.1121 3.87616 26.9933 3.80898 26.8382 3.77797C26.9468 3.56093 27.0656 3.35939 27.1845 3.17336C27.3188 2.94081 27.3447 2.77028 27.2516 2.66176C27.1638 2.55324 27.0191 2.4964 26.8227 2.4964C26.6264 2.4964 26.4352 2.54808 26.2491 2.64626C26.1561 2.7031 26.0528 2.8478 25.9494 3.08551C25.8409 3.31805 25.7324 3.60227 25.629 3.94333C25.4275 4.02084 25.2828 4.11387 25.1949 4.21205C25.1536 4.25856 25.1484 4.29473 25.1743 4.3154C25.2001 4.33607 25.2518 4.32573 25.3241 4.28439C25.35 4.26889 25.4223 4.25338 25.5412 4.23788C25.412 4.68747 25.3086 5.13705 25.2259 5.58664C25.1433 6.03622 25.1019 6.41346 25.0967 6.71835C25.0915 6.8527 25.1071 7.02324 25.1433 7.22994C25.1743 7.43665 25.2621 7.62268 25.3965 7.78804C25.5308 7.95341 25.7479 8.04643 26.0424 8.0671C26.3731 8.0671 26.6264 7.95858 26.8124 7.75187C26.9933 7.54517 27.0966 7.34363 27.1173 7.13692C27.138 6.98706 27.1069 6.91471 27.0191 6.91471C26.9829 6.91471 26.9623 6.93021 26.9519 6.95605C26.9416 6.98706 26.9416 7.01806 26.9467 7.05424C26.9571 7.08525 26.9674 7.11626 26.9777 7.1421C26.9829 7.1576 26.9725 7.2041 26.9312 7.28162C26.895 7.35397 26.8434 7.43665 26.7658 7.5245C26.6935 7.61235 26.6108 7.6847 26.5126 7.74154C26.4144 7.79838 26.3059 7.82422 26.1922 7.81389C26.0579 7.78288 25.9649 7.68986 25.908 7.51933C25.8512 7.35397 25.8305 7.16794 25.846 6.9664C25.9184 6.18092 26.1767 5.27658 26.6108 4.26373C26.7038 4.29474 26.771 4.33608 26.8124 4.39292C26.833 4.42393 26.8382 4.45493 26.8382 4.49111C26.833 4.52212 26.8279 4.55312 26.8175 4.58413C26.8123 4.61514 26.8072 4.63581 26.8072 4.65648C26.8124 4.67715 26.8279 4.68749 26.8589 4.69265L26.8589 4.69264Z" fill="#FFF6D5"/>
<path id="path1090" d="M29.1791 4.94069C29.0189 4.92519 28.8794 4.95102 28.7554 5.00787C28.6262 5.06471 28.5074 5.13189 28.3885 5.21457C28.3162 5.26108 28.2386 5.31276 28.1611 5.3541C28.2025 5.24558 28.2128 5.14223 28.1818 5.03887C28.1508 4.94068 28.0526 4.86317 27.8872 4.80633C27.5617 4.71848 27.3343 4.72882 27.1999 4.8425C27.0656 4.95619 27.0397 5.13705 27.1328 5.3851C27.1689 5.46778 27.1741 5.5763 27.138 5.72099C27.1018 5.86052 27.0553 6.02072 26.9933 6.19125C26.9002 6.43929 26.8279 6.68217 26.7866 6.93022C26.7607 7.05941 26.7659 7.20927 26.7969 7.3798C26.8227 7.55034 26.9003 7.7002 27.0191 7.82939C27.1431 7.95858 27.3292 8.02576 27.5824 8.03609C27.7064 8.03609 27.7839 7.99992 27.8149 7.9379C27.8408 7.87589 27.8201 7.81388 27.7374 7.75187C27.6289 7.67436 27.5617 7.56583 27.5359 7.42114C27.5049 7.28161 27.4997 7.16276 27.51 7.06974C27.5204 6.94055 27.5514 6.80102 27.5979 6.65116C27.6392 6.49613 27.6909 6.35144 27.7477 6.21191C27.8253 6.06205 27.9545 5.93803 28.1302 5.83985C28.3007 5.74166 28.4764 5.68482 28.6521 5.66931C28.8278 5.65897 28.9518 5.70032 29.0345 5.7985C29.0862 5.89152 29.0965 5.97937 29.0552 6.07239C29.0138 6.16541 28.9466 6.23775 28.8536 6.27909C28.7554 6.3256 28.6779 6.28943 28.6262 6.16541C28.6056 6.1344 28.5797 6.1189 28.5487 6.1344C28.5126 6.14474 28.4867 6.17057 28.4557 6.20675C28.4299 6.24292 28.4092 6.2791 28.404 6.3101C28.3988 6.34627 28.4092 6.39278 28.4402 6.44963C28.466 6.50647 28.5177 6.55815 28.5901 6.59432C28.6676 6.63049 28.7658 6.63566 28.8898 6.60982C29.0241 6.57365 29.1585 6.47546 29.2825 6.3101C29.4066 6.1499 29.4996 5.96903 29.5616 5.76233C29.6236 5.56079 29.6288 5.37992 29.5771 5.22489C29.5254 5.0647 29.3962 4.97168 29.1792 4.94068L29.1791 4.94069Z" fill="#FFF6D5"/>
<path id="path1092" d="M30.7295 7.95858C30.9517 7.96892 31.1635 7.88623 31.3702 7.71053C31.5821 7.53483 31.732 7.26095 31.825 6.88888C31.9025 6.60466 31.9645 6.47547 32.0007 6.49614C32.0265 6.51681 32.0369 6.56332 32.0265 6.62533C32.0162 6.69251 31.9955 6.77003 31.9697 6.86304C31.8922 7.11626 31.8663 7.34363 31.8922 7.53483C31.918 7.7312 31.9955 7.87073 32.1247 7.95341C32.3366 8.08777 32.533 8.11361 32.7242 8.02059C32.9102 7.93274 33.0652 7.79322 33.1893 7.60718C33.3133 7.42115 33.3805 7.25062 33.396 7.09559C33.4115 6.94573 33.3753 6.86821 33.2874 6.87855C33.2513 6.87855 33.2306 6.89405 33.2203 6.92506C33.2151 6.9509 33.2151 6.9819 33.2203 7.01808C33.2306 7.04909 33.2409 7.08009 33.2513 7.10076C33.2616 7.12143 33.2513 7.16794 33.2151 7.24545C33.1841 7.3178 33.1324 7.40048 33.0601 7.48833C32.9929 7.58135 32.9102 7.65886 32.8172 7.72087C32.719 7.78288 32.6105 7.81389 32.4968 7.80872C32.3366 7.80352 32.2643 7.71053 32.2643 7.51933C32.2695 7.32813 32.3056 7.10592 32.3779 6.84754C32.4141 6.70285 32.4451 6.56332 32.4606 6.43413C32.4761 6.29978 32.4503 6.19642 32.3883 6.11891C32.3263 6.0414 32.2436 6.00005 32.1402 6.00005C32.0576 6.00005 31.98 6.01555 31.9077 6.05173C31.8405 6.0879 31.7733 6.14992 31.7113 6.23777C31.6493 6.33079 31.5873 6.44447 31.5304 6.584C31.4529 6.76487 31.3547 6.94573 31.2411 7.12143C31.1274 7.29713 31.0034 7.37465 30.869 7.35397C30.7295 7.3333 30.6416 7.25062 30.6003 7.10593C30.5589 6.96123 30.6003 6.78037 30.714 6.5685C30.8276 6.35662 30.9982 6.18092 31.2307 6.03623C31.4633 5.89154 31.7423 5.83986 32.073 5.8812C32.4451 5.92254 32.6725 5.87087 32.7552 5.72617C32.8327 5.58148 32.7965 5.41095 32.6415 5.21975C32.4916 5.02338 32.2798 4.89418 32.0162 4.83217C31.6286 4.74432 31.2462 4.77016 30.869 4.91485C30.4918 5.05438 30.1869 5.29726 29.9543 5.64349C29.7218 5.98972 29.6236 6.4238 29.6649 6.9509C29.6856 7.18344 29.7735 7.39015 29.9181 7.57101C30.0628 7.74671 30.2075 7.85523 30.3522 7.89657C30.4969 7.93791 30.6261 7.95858 30.7295 7.95858L30.7295 7.95858Z" fill="#FFF6D5"/>
<path id="path1094" d="M35.5198 5.93801C35.6439 5.94321 35.6955 6.02069 35.68 6.17572C35.6645 6.32559 35.6232 6.50645 35.556 6.71316C35.5147 6.85785 35.4785 6.99738 35.4527 7.1369C35.4216 7.27126 35.4165 7.38495 35.432 7.47797C35.4578 7.62266 35.5147 7.75185 35.6077 7.86037C35.7007 7.96889 35.8557 8.0309 36.0728 8.0464C36.0883 8.0516 36.1038 8.0516 36.1193 8.0516H36.1245C36.1297 8.0516 36.1297 8.0516 36.1348 8.0516C36.3777 8.02059 36.5844 7.89658 36.7498 7.67954C36.9203 7.4625 37.0133 7.26096 37.034 7.06975C37.0495 6.91989 37.0185 6.84755 36.9306 6.85272C36.8945 6.85792 36.8738 6.87338 36.8635 6.89922C36.8531 6.92506 36.8531 6.95607 36.8635 6.99225C36.8687 7.02842 36.879 7.05425 36.8945 7.08009C36.9048 7.09559 36.8893 7.14727 36.8531 7.21962C36.8221 7.29714 36.7705 7.37982 36.6981 7.46767C36.6309 7.55552 36.5482 7.63303 36.4501 7.69504C36.3519 7.75705 36.2485 7.78806 36.1297 7.78289C36.1038 7.78289 36.0728 7.77769 36.0522 7.77255C35.9798 7.74671 35.9385 7.66403 35.9178 7.53484C35.8971 7.40048 35.9385 7.19378 36.0366 6.92506C36.1503 6.64601 36.233 6.34629 36.295 6.03623C36.3519 5.72101 36.3415 5.44712 36.2537 5.21975C36.171 4.99237 35.9695 4.87352 35.6491 4.85801C35.3132 4.86321 35.0341 4.97687 34.8119 5.19907C34.5949 5.42128 34.4192 5.67966 34.29 5.97422C34.1608 6.26877 34.0626 6.52715 33.9903 6.75453C33.9179 6.99224 33.8611 7.11626 33.8249 7.1266C33.7732 7.1111 33.7577 7.04392 33.7732 6.91473C33.7887 6.78554 33.8249 6.64084 33.8766 6.47031C33.9283 6.29978 33.9799 6.14475 34.0316 6.00523C34.0781 5.8657 34.1143 5.78302 34.1298 5.74684C34.135 5.73134 34.1505 5.7055 34.1711 5.66933C34.2176 5.59182 34.2693 5.4988 34.3158 5.37995C34.3675 5.26109 34.3778 5.14223 34.3468 5.02855C34.3158 4.90969 34.2125 4.83218 34.0368 4.79084C33.7112 4.71849 33.4787 4.73916 33.3495 4.85802C33.2203 4.97687 33.21 5.15774 33.3081 5.40579C33.3495 5.47814 33.3547 5.57632 33.3288 5.70551C33.2978 5.8347 33.2616 5.97939 33.21 6.13959C33.1066 6.41864 33.0498 6.69252 33.0343 6.96641C33.0239 7.24029 33.0756 7.48317 33.1738 7.68471C33.2771 7.88625 33.4787 7.99477 33.7732 8.01027C34.0368 8.01547 34.2538 7.90175 34.414 7.6537C34.5794 7.40566 34.7137 7.13694 34.8223 6.84239C34.9101 6.59951 35.0135 6.3928 35.1168 6.2171C35.2253 6.0414 35.3597 5.94839 35.5199 5.93805L35.5198 5.93801Z" fill="#FFF6D5"/>
<path id="path1096" d="M39.3904 6.57881C39.287 6.58401 39.1889 6.62015 39.0958 6.68734C39.008 6.75452 38.9201 6.83203 38.8271 6.92504C38.7238 7.03873 38.6049 7.13692 38.4757 7.22993C38.3517 7.31778 38.1967 7.36946 38.0158 7.3798C37.8401 7.3798 37.7367 7.29195 37.7161 7.12658C37.6954 6.95605 37.7419 6.76485 37.8556 6.55298C37.9693 6.33594 38.1398 6.15507 38.3724 6.00521C38.6049 5.86051 38.884 5.80367 39.2147 5.83984C39.5868 5.88635 39.8141 5.83464 39.8968 5.68998C39.9743 5.54012 39.9433 5.37476 39.8038 5.18872C39.6643 5.00269 39.4472 4.8735 39.1578 4.79081C38.7703 4.70813 38.393 4.75465 38.021 4.93034C37.6489 5.10087 37.344 5.37476 37.1011 5.74166C36.8583 6.10856 36.7394 6.54264 36.7394 7.0439C36.7601 7.38496 36.8738 7.64851 37.0856 7.82938C37.2923 8.01541 37.5197 8.10843 37.7626 8.1136C37.9435 8.1084 38.0933 8.06192 38.2173 7.96891C38.3465 7.88106 38.455 7.78287 38.5481 7.67952C38.6463 7.56583 38.7393 7.48832 38.8323 7.44697C38.9201 7.40563 39.0183 7.44698 39.1268 7.56583C39.1992 7.71053 39.2147 7.9379 39.1682 8.25312C39.1217 8.57352 39.0235 8.89908 38.8685 9.24531C38.7134 9.58637 38.5119 9.87059 38.2587 10.0928C38.0055 10.315 37.7109 10.4029 37.375 10.3563C37.2045 10.3305 37.0546 10.2272 36.9306 10.0618C36.8014 9.89126 36.7756 9.66906 36.8479 9.39517C36.8841 9.24531 36.9668 9.11095 37.096 8.97659C37.22 8.8474 37.3595 8.75955 37.5042 8.70271C37.6541 8.65103 37.7574 8.63553 37.8143 8.6562C37.8711 8.75955 37.9435 8.82673 38.0261 8.85257C38.114 8.87841 38.1863 8.8629 38.2483 8.80089C38.3414 8.6872 38.3465 8.59418 38.2535 8.51667C38.1657 8.43916 38.0107 8.39781 37.7936 8.39265C37.6334 8.38745 37.4784 8.40814 37.3234 8.44432C37.1683 8.47533 36.9978 8.57868 36.8118 8.74405C36.6206 8.90941 36.4965 9.13162 36.4294 9.41584C36.3622 9.73623 36.4035 10.0308 36.5586 10.2892C36.7188 10.5476 36.941 10.7181 37.22 10.8111C37.7109 10.9506 38.1502 10.9248 38.5481 10.7336C38.946 10.5424 39.2819 10.253 39.5506 9.86543C39.8245 9.47786 40.0105 9.04894 40.1139 8.58386C40.1862 8.24796 40.1966 7.93274 40.1501 7.62785C40.1087 7.32296 40.0209 7.06974 39.8865 6.87854C39.7522 6.68217 39.5868 6.58398 39.3904 6.57882L39.3904 6.57881Z" fill="#FFF6D5"/>
<path id="path1098" d="M41.6641 6.07756C41.628 6.06722 41.5866 6.08277 41.535 6.12408C41.4833 6.16542 41.4419 6.22226 41.4161 6.28944C41.3851 6.35662 41.3851 6.42897 41.4161 6.50131C41.4833 6.615 41.6486 6.66668 41.9225 6.65117C42.1964 6.63567 42.4703 6.52198 42.7442 6.29977C42.9922 6.0724 43.1059 5.81402 43.0852 5.5298C43.0646 5.24558 42.8889 5.02854 42.5581 4.88901C42.1137 4.73398 41.7003 4.75982 41.3231 4.96136C40.9458 5.16807 40.6513 5.47296 40.4446 5.87087C40.2379 6.26877 40.1604 6.68735 40.2224 7.12143C40.2896 7.46249 40.4291 7.69504 40.6358 7.8294C40.8425 7.95859 41.0492 8.03093 41.2611 8.0516C41.6796 8.09294 42.0569 8.0568 42.3979 7.94825C42.7338 7.83973 43.0026 7.7002 43.1989 7.54001C43.4005 7.37464 43.4987 7.23512 43.5038 7.12143C43.5245 7.06459 43.5245 7.01291 43.4986 6.97674C43.478 6.94057 43.4469 6.9199 43.4108 6.91473C43.3746 6.90953 43.3488 6.92507 43.3333 6.96124C43.3178 6.99741 43.3281 7.05426 43.3643 7.1421C43.3591 7.23512 43.2557 7.33847 43.0542 7.44183C42.8527 7.54518 42.6098 7.62269 42.3307 7.67437C42.0517 7.72605 41.7881 7.72088 41.5453 7.66917C41.2817 7.59165 41.1318 7.44179 41.0905 7.22475C41.0492 7.00254 41.0802 6.76483 41.1887 6.51679C41.2972 6.26874 41.4471 6.05687 41.6331 5.8915C41.8243 5.72614 42.0207 5.65896 42.2222 5.68997C42.3411 5.72098 42.3979 5.76748 42.3876 5.83983C42.3772 5.90701 42.3307 5.97936 42.2429 6.05687C42.1602 6.13438 42.0672 6.19123 41.969 6.24291C41.8708 6.28942 41.7933 6.30491 41.7365 6.28941C41.7003 6.27391 41.6796 6.2584 41.6744 6.23257C41.6744 6.20673 41.6744 6.18606 41.6848 6.16022C41.69 6.13955 41.6951 6.12405 41.6951 6.10854C41.6951 6.09304 41.6848 6.0827 41.6641 6.07753L41.6641 6.07756Z" fill="#FFF6D5"/>
<path id="path1100" d="M48.8006 7.1886C48.8213 7.03873 48.7903 6.96122 48.7076 6.96639C48.6714 6.96639 48.6456 6.97673 48.6353 7.00773C48.625 7.03357 48.625 7.06457 48.6303 7.10075C48.6353 7.13692 48.6458 7.16276 48.6561 7.1886C48.6664 7.20927 48.6511 7.25578 48.6096 7.32812C48.5734 7.40047 48.5166 7.47799 48.4443 7.56583C48.3668 7.64852 48.2789 7.72086 48.1807 7.77771C48.0825 7.83455 47.974 7.86039 47.8552 7.85006C47.8294 7.84486 47.7984 7.83972 47.7777 7.83456C47.7105 7.80355 47.6691 7.72087 47.6588 7.58651C47.6433 7.45215 47.695 7.25062 47.8138 6.9819C47.9379 6.71318 48.0412 6.41863 48.1187 6.10857C48.1962 5.79334 48.1962 5.52463 48.1237 5.29208C48.0565 5.05954 47.8602 4.93035 47.5398 4.89934C47.1677 4.889 46.8576 4.99237 46.6199 5.2094C46.3822 5.42128 46.191 5.67449 46.0515 5.96388C45.9171 6.25843 45.8138 6.51681 45.7414 6.73385C45.6743 6.95089 45.6174 7.06458 45.5812 7.07492C45.576 7.07492 45.5709 7.06972 45.5657 7.06972C45.5605 7.06972 45.5554 7.06452 45.5554 7.06452C45.5554 7.05932 45.5502 7.05932 45.5502 7.05418C45.5089 6.92498 45.5554 6.62009 45.6897 6.13434C45.8241 5.65375 46.0101 5.12148 46.2427 4.55304C46.4752 3.97944 46.7129 3.49885 46.961 3.11128C47.1005 2.8839 47.1315 2.71337 47.0385 2.60485C46.9506 2.49116 46.8059 2.43432 46.6096 2.43432C46.4132 2.42912 46.222 2.48083 46.036 2.57384C45.8809 2.6772 45.7466 2.89941 45.6225 3.24047C45.5243 3.47301 45.39 3.88642 45.2091 4.4807C45.0334 5.07498 44.9094 5.68992 44.8422 6.32554C44.8267 6.48057 44.8267 6.67694 44.8474 6.92498C44.8733 7.16786 44.9301 7.39524 45.0283 7.60194C45.1213 7.80348 45.2763 7.91717 45.4934 7.93784C45.7001 7.93784 45.8913 7.82415 46.067 7.60194C46.2427 7.37974 46.4081 7.12652 46.5631 6.84747C46.6974 6.60976 46.8318 6.40306 46.961 6.23252C47.085 6.06199 47.2194 5.97414 47.3486 5.96897C47.4726 5.98447 47.5191 6.06199 47.4984 6.21702C47.4726 6.36688 47.4209 6.54258 47.3434 6.74929C47.2917 6.88881 47.2504 7.02834 47.2142 7.1627C47.178 7.29705 47.1625 7.41074 47.178 7.50376C47.1935 7.65362 47.2452 7.78281 47.3279 7.8965C47.4158 8.01019 47.5656 8.08253 47.7827 8.10837C47.7982 8.11357 47.8137 8.11357 47.8292 8.11357H47.8341C47.8391 8.11357 47.8391 8.11357 47.8444 8.11357C48.0873 8.09807 48.2992 7.98955 48.4801 7.78284C48.6609 7.57097 48.7694 7.3746 48.8005 7.18857L48.8006 7.1886Z" fill="#FF7F2A"/>
<path id="path1102" d="M49.9634 6.07756C49.9272 6.06722 49.8859 6.08277 49.8342 6.12408C49.7825 6.16542 49.7412 6.22226 49.7153 6.28944C49.6843 6.35662 49.6843 6.42897 49.7153 6.50131C49.7825 6.615 49.9478 6.66668 50.2217 6.65117C50.4956 6.63567 50.7695 6.52198 51.0434 6.29977C51.2914 6.0724 51.4051 5.81402 51.3844 5.5298C51.3637 5.24558 51.1881 5.02854 50.8574 4.88901C50.4129 4.73398 49.9995 4.75982 49.6223 4.96136C49.2451 5.16807 48.9505 5.47296 48.7438 5.87087C48.5371 6.26877 48.4596 6.68735 48.5216 7.12143C48.5888 7.46249 48.7283 7.69504 48.935 7.8294C49.1417 7.95859 49.3484 8.03093 49.5603 8.0516C49.9789 8.09294 50.3561 8.0568 50.6972 7.94825C51.0331 7.83973 51.3018 7.7002 51.4981 7.54001C51.6997 7.37464 51.7979 7.23512 51.803 7.12143C51.8237 7.06459 51.8237 7.01291 51.798 6.97674C51.7773 6.94057 51.7463 6.9199 51.7101 6.91473C51.6739 6.90953 51.6481 6.92507 51.6326 6.96124C51.6171 6.99741 51.6276 7.05426 51.6636 7.1421C51.6586 7.23512 51.5551 7.33847 51.3536 7.44183C51.152 7.54518 50.9091 7.62269 50.6301 7.67437C50.351 7.72605 50.0875 7.72088 49.8446 7.66917C49.5811 7.59165 49.4312 7.44179 49.3899 7.22475C49.3486 7.00254 49.3796 6.76483 49.4881 6.51679C49.5966 6.26874 49.7464 6.05687 49.9325 5.8915C50.1237 5.72614 50.32 5.65896 50.5216 5.68997C50.6404 5.72098 50.6973 5.76748 50.6869 5.83983C50.6766 5.90701 50.6301 5.97936 50.5423 6.05687C50.4596 6.13438 50.3666 6.19123 50.2684 6.24291C50.1702 6.28942 50.0927 6.30491 50.0358 6.28941C49.9996 6.27391 49.979 6.2584 49.9738 6.23257C49.9738 6.20673 49.9738 6.18606 49.9841 6.16022C49.9891 6.13955 49.9944 6.12405 49.9944 6.10854C49.9944 6.09304 49.9841 6.0827 49.9634 6.07753L49.9634 6.07756Z" fill="#FF7F2A"/>
<path id="path1104" d="M53.8649 4.94069C53.7047 4.92519 53.5652 4.95102 53.4412 5.00787C53.312 5.06471 53.1931 5.13189 53.0743 5.21457C53.0019 5.26108 52.9244 5.31276 52.8469 5.3541C52.8882 5.24558 52.8986 5.14223 52.8676 5.03887C52.8366 4.94068 52.7384 4.86317 52.573 4.80633C52.2475 4.71848 52.0201 4.72882 51.8857 4.8425C51.7514 4.95619 51.7255 5.13705 51.8185 5.3851C51.8547 5.46778 51.8598 5.5763 51.8235 5.72099C51.7873 5.86052 51.7408 6.02072 51.6788 6.19125C51.5858 6.43929 51.5135 6.68217 51.4721 6.93022C51.4463 7.05941 51.4514 7.20927 51.4824 7.3798C51.5082 7.55034 51.5858 7.7002 51.7046 7.82939C51.8287 7.95858 52.0147 8.02576 52.2679 8.03609C52.3919 8.03609 52.4694 7.99992 52.5004 7.9379C52.5262 7.87589 52.5055 7.81388 52.423 7.75187C52.3144 7.67436 52.2473 7.56583 52.2214 7.42114C52.1904 7.28161 52.1852 7.16276 52.1956 7.06974C52.2059 6.94055 52.2369 6.80102 52.2835 6.65116C52.3248 6.49613 52.3765 6.35144 52.4334 6.21191C52.5109 6.06205 52.6401 5.93803 52.8158 5.83985C52.9863 5.74166 53.162 5.68482 53.3377 5.66931C53.5134 5.65897 53.6374 5.70032 53.7201 5.7985C53.7718 5.89152 53.7821 5.97937 53.7408 6.07239C53.6995 6.16541 53.6323 6.23775 53.5393 6.27909C53.4411 6.3256 53.3636 6.28943 53.3119 6.16541C53.2912 6.1344 53.2654 6.1189 53.2344 6.1344C53.1982 6.14474 53.1724 6.17057 53.1414 6.20675C53.1156 6.24292 53.0949 6.2791 53.0897 6.3101C53.0847 6.34627 53.0947 6.39278 53.1259 6.44963C53.1517 6.50647 53.2034 6.55815 53.2758 6.59432C53.3533 6.63049 53.4515 6.63566 53.5755 6.60982C53.7099 6.57365 53.8442 6.47546 53.9682 6.3101C54.0923 6.1499 54.1853 5.96903 54.2473 5.76233C54.3093 5.56079 54.3145 5.37992 54.2628 5.22489C54.2111 5.0647 54.0819 4.97168 53.8649 4.94068L53.8649 4.94069Z" fill="#FF7F2A"/>
<path id="path1106" d="M55.6581 6.07756C55.6219 6.06722 55.5806 6.08277 55.5289 6.12408C55.4772 6.16542 55.4359 6.22226 55.41 6.28944C55.379 6.35662 55.379 6.42897 55.41 6.50131C55.4772 6.615 55.6426 6.66668 55.9165 6.65117C56.1903 6.63567 56.4642 6.52198 56.7381 6.29977C56.9862 6.0724 57.0998 5.81402 57.0792 5.5298C57.0585 5.24558 56.8828 5.02854 56.5521 4.88901C56.1077 4.73398 55.6943 4.75982 55.317 4.96136C54.9398 5.16807 54.6452 5.47296 54.4385 5.87087C54.2318 6.26877 54.1543 6.68735 54.2163 7.12143C54.2835 7.46249 54.423 7.69504 54.6297 7.8294C54.8364 7.95859 55.0431 8.03093 55.255 8.0516C55.6736 8.09294 56.0508 8.0568 56.3919 7.94825C56.7278 7.83973 56.9965 7.7002 57.1929 7.54001C57.3944 7.37464 57.4926 7.23512 57.4978 7.12143C57.5185 7.06459 57.5185 7.01291 57.4928 6.97674C57.4721 6.94057 57.4411 6.9199 57.4049 6.91473C57.3687 6.90953 57.3429 6.92507 57.3274 6.96124C57.3119 6.99741 57.3224 7.05426 57.3584 7.1421C57.3534 7.23512 57.2498 7.33847 57.0483 7.44183C56.8468 7.54518 56.6039 7.62269 56.3248 7.67437C56.0458 7.72605 55.7822 7.72088 55.5394 7.66917C55.2758 7.59165 55.1259 7.44179 55.0846 7.22475C55.0432 7.00254 55.0743 6.76483 55.1828 6.51679C55.2913 6.26874 55.4412 6.05687 55.6272 5.8915C55.8184 5.72614 56.0148 5.65896 56.2163 5.68997C56.3352 5.72098 56.392 5.76748 56.3817 5.83983C56.3714 5.90701 56.3249 5.97936 56.237 6.05687C56.1543 6.13438 56.0613 6.19123 55.9631 6.24291C55.8649 6.28942 55.7874 6.30491 55.7306 6.28941C55.6944 6.27391 55.6738 6.2584 55.6686 6.23257C55.6686 6.20673 55.6686 6.18606 55.6789 6.16022C55.6839 6.13955 55.6892 6.12405 55.6892 6.10854C55.6892 6.09304 55.6789 6.0827 55.6582 6.07753L55.6581 6.07756Z" fill="#FF7F2A"/>
</g>
<g id="exclamation">
<path id="path1109" d="M58.6675 3.57845L58.3285 7.09245H58.2045L58.1218 6.13333C58.1165 6.05616 58.0613 5.54904 57.9564 4.61198C57.8793 3.87886 57.8407 3.43238 57.8407 3.27252C57.8407 2.78194 57.9785 2.53665 58.2541 2.53665C58.5407 2.53665 58.684 2.76541 58.684 3.22292C58.684 3.32213 58.6785 3.44065 58.6675 3.57845H58.6675ZM58.7006 8.41537C58.7006 8.54214 58.6538 8.64412 58.5601 8.72129C58.4719 8.78744 58.3726 8.82051 58.2624 8.82051C58.1632 8.82051 58.0722 8.79019 57.9895 8.72956C57.8903 8.65239 57.8407 8.54766 57.8407 8.41537C57.8407 8.27756 57.8821 8.16456 57.9647 8.07637C58.0474 7.98817 58.1466 7.94408 58.2624 7.94408C58.3782 7.94408 58.4801 7.99369 58.5683 8.09291C58.6565 8.1811 58.7006 8.28859 58.7006 8.41537V8.41537Z" fill="#FF6600"/>
</g>
</g>
</svg>
